# Blender 4.4.0
# www.blender.org
mtllib cornell_box_pbr.mtl
o back_wall
v 549.599976 0.000126 559.200012
v 0.000000 0.000126 559.200012
v 0.000000 548.800171 559.199829
v 556.000000 548.800171 559.199829
vn -0.0000 -0.0000 -1.0000
s 1
usemtl white
f 1//1 3//1 4//1
f 1//1 2//1 3//1
o ceiling
v 556.000000 548.799988 -0.000123
v 556.000000 548.800171 559.199829
v 0.000000 548.800171 559.199829
v 0.000000 548.799988 -0.000123
vn -0.0000 -1.0000 -0.0000
s 1
usemtl white
f 6//2 8//2 5//2
f 6//2 7//2 8//2
o floor
v 552.799988 0.000000 0.000000
v 0.000000 0.000000 0.000000
v 0.000000 0.000126 559.200012
v 549.599976 0.000126 559.200012
v 130.000000 0.000015 65.000000
v 82.000000 0.000051 225.000000
v 240.000000 0.000063 272.000000
v 290.000000 0.000027 114.000000
v 423.000000 0.000057 247.000000
v 265.000000 0.000066 296.000000
v 314.000000 0.000102 456.000000
v 472.000000 0.000093 406.000000
vn -0.0000 1.0000 -0.0000
vn -0.0000 -1.0000 -0.0000
s 1
usemtl white
f 10//3 12//3 9//3
f 15//4 13//4 16//4
f 20//4 18//4 17//4
f 10//3 11//3 12//3
f 15//4 14//4 13//4
f 20//4 19//4 18//4
o green_wall
v 0.000000 0.000126 559.200012
v 0.000000 0.000000 0.000000
v 0.000000 548.799988 -0.000123
v 0.000000 548.800171 559.199829
vn 1.0000 -0.0000 -0.0000
s 1
usemtl green
f 21//5 23//5 24//5
f 21//5 22//5 23//5
o light
v 343.000000 548.000000 226.999863
v 343.000000 548.000000 331.999908
v 213.000000 548.000000 331.999908
v 213.000000 548.000000 226.999863
vn -0.0000 -1.0000 -0.0000
s 1
usemtl light
f 26//6 28//6 25//6
f 26//6 27//6 28//6
o red_wall
v 552.799988 0.000000 0.000000
v 549.599976 0.000126 559.200012
v 556.000000 548.800171 559.199829
v 556.000000 548.799988 -0.000123
vn -1.0000 0.0087 -0.0028
vn -1.0000 0.0088 -0.0029
vn -1.0000 0.0058 -0.0000
vn -0.9999 0.0117 -0.0057
s 1
usemtl red
f 29//7 31//8 32//9
f 29//7 30//10 31//8
o short_block
v 130.000000 165.000000 64.999954
v 82.000000 165.000046 224.999954
v 240.000000 165.000046 272.000000
v 290.000000 165.000046 113.999954
v 290.000000 0.000027 114.000000
v 290.000000 165.000046 113.999954
v 240.000000 165.000046 272.000000
v 240.000000 0.000063 272.000000
v 130.000000 0.000015 65.000000
v 130.000000 165.000000 64.999954
v 290.000000 165.000046 113.999954
v 290.000000 0.000027 114.000000
v 82.000000 0.000051 225.000000
v 82.000000 165.000046 224.999954
v 130.000000 165.000000 64.999954
v 130.000000 0.000015 65.000000
v 240.000000 0.000063 272.000000
v 240.000000 165.000046 272.000000
v 82.000000 165.000046 224.999954
v 82.000000 0.000051 225.000000
vn -0.0000 1.0000 -0.0000
vn 0.9534 -0.0000 0.3017
vn 0.2928 -0.0000 -0.9562
vn -0.9578 -0.0000 -0.2873
vn -0.2851 -0.0000 0.9585
s 1
usemtl white
f 33//11 35//11 36//11
f 38//12 40//12 37//12
f 42//13 44//13 41//13
f 46//14 48//14 45//14
f 50//15 52//15 49//15
f 33//11 34//11 35//11
f 38//12 39//12 40//12
f 42//13 43//13 44//13
f 46//14 47//14 48//14
f 50//15 51//15 52//15
o tall_block
v 423.000000 330.000092 246.999908
v 265.000000 330.000092 295.999908
v 314.000000 330.000092 455.999908
v 472.000000 330.000092 405.999908
v 423.000000 0.000057 247.000000
v 423.000000 330.000092 246.999908
v 472.000000 330.000092 405.999908
v 472.000000 0.000093 406.000000
v 472.000000 0.000093 406.000000
v 472.000000 330.000092 405.999908
v 314.000000 330.000092 455.999908
v 314.000000 0.000102 456.000000
v 314.000000 0.000102 456.000000
v 314.000000 330.000092 455.999908
v 265.000000 330.000092 295.999908
v 265.000000 0.000066 296.000000
v 265.000000 0.000066 296.000000
v 265.000000 330.000092 295.999908
v 423.000000 330.000092 246.999908
v 423.000000 0.000057 247.000000
vn -0.0000 1.0000 -0.0000
vn 0.9556 -0.0000 -0.2945
vn 0.3017 -0.0000 0.9534
vn -0.9562 -0.0000 0.2928
vn -0.2962 -0.0000 -0.9551
s 1
usemtl white
f 54//16 56//16 53//16
f 57//17 59//17 60//17
f 61//18 63//18 64//18
f 66//19 68//19 65//19
f 70//20 72//20 69//20
f 54//16 55//16 56//16
f 57//17 58//17 59//17
f 61//18 62//18 63//18
f 66//19 67//19 68//19
f 70//20 71//20 72//20
