# Blender 4.1.1
# www.blender.org
mtllib walmart_cornell_box.mtl
o Cube
v -1.000000 0.001000 1.000000
v -1.000000 4.001000 1.000000
v -1.000000 0.001000 -1.000000
v -1.000000 4.001000 -1.000000
v 1.000000 0.001000 1.000000
v 1.000000 4.001000 1.000000
v 1.000000 0.001000 -1.000000
v 1.000000 4.001000 -1.000000
vn -1.0000 -0.0000 -0.0000
vn -0.0000 -0.0000 -1.0000
vn -0.0000 -0.0000 1.0000
vn -0.0000 -1.0000 -0.0000
vn -0.0000 1.0000 -0.0000
vt 0.625000 0.000000
vt 0.375000 0.250000
vt 0.375000 0.000000
vt 0.625000 0.250000
vt 0.375000 0.500000
vt 0.625000 0.750000
vt 0.375000 1.000000
vt 0.375000 0.750000
vt 0.125000 0.750000
vt 0.125000 0.500000
vt 0.875000 0.500000
vt 0.625000 0.500000
vt 0.625000 1.000000
vt 0.875000 0.750000
s 0
usemtl Material.002
f 2/1/1 3/2/1 1/3/1
f 4/4/2 7/5/2 3/2/2
f 6/6/3 1/7/3 5/8/3
f 7/5/4 1/9/4 3/10/4
f 4/11/5 6/6/5 8/12/5
f 2/1/1 4/4/1 3/2/1
f 4/4/2 8/12/2 7/5/2
f 6/6/3 2/13/3 1/7/3
f 7/5/4 5/8/4 1/9/4
f 4/11/5 2/14/5 6/6/5
o Cube.001
v 0.400000 0.002000 0.400000
v 0.400000 0.802000 0.400000
v -0.400000 0.002000 0.400000
v -0.400000 0.802000 0.400000
v 0.400000 0.002000 -0.400000
v 0.400000 0.802000 -0.400000
v -0.400000 0.002000 -0.400000
v -0.400000 0.802000 -0.400000
vn -0.0000 -0.0000 1.0000
vn -1.0000 -0.0000 -0.0000
vn -0.0000 -0.0000 -1.0000
vn 1.0000 -0.0000 -0.0000
vn -0.0000 -1.0000 -0.0000
vn -0.0000 1.0000 -0.0000
vt 0.625000 0.000000
vt 0.375000 0.250000
vt 0.375000 0.000000
vt 0.625000 0.250000
vt 0.375000 0.500000
vt 0.625000 0.500000
vt 0.375000 0.750000
vt 0.625000 0.750000
vt 0.375000 1.000000
vt 0.125000 0.750000
vt 0.125000 0.500000
vt 0.875000 0.500000
vt 0.625000 1.000000
vt 0.875000 0.750000
s 0
usemtl Material.001
f 10/15/6 11/16/6 9/17/6
f 12/18/7 15/19/7 11/16/7
f 16/20/8 13/21/8 15/19/8
f 14/22/9 9/23/9 13/21/9
f 15/19/10 9/24/10 11/25/10
f 12/26/11 14/22/11 16/20/11
f 10/15/6 12/18/6 11/16/6
f 12/18/7 16/20/7 15/19/7
f 16/20/8 14/22/8 13/21/8
f 14/22/9 10/27/9 9/23/9
f 15/19/10 13/21/10 9/24/10
f 12/26/11 10/28/11 14/22/11
